# xmcd CD database file
#
# Track frame offsets:
#	150
#	37433
#	72281
#	102783
#	133196
#	174498
#	214927
#	250693
#
# Disc length: 3816 seconds
#
# Revision: 0
# Processed by: cddbd v1.5.2PL0 Copyright (c) Steve Scherf et al.
# Submitted via: CDex 1.70beta2
#
DISCID=770ee608
DTITLE=The Rivington Project - Trip
DYEAR=2006
DGENRE=Jazz
TTITLE0=Navl Gazr
TTITLE1=There's No Then In Zen
TTITLE2=Giant Blues
TTITLE3=New, As Yet Unnamed Ballad
TTITLE4=Ikon Tact
TTITLE5=A-Knuf
TTITLE6=Why Aren't You Listening
TTITLE7=Amsterdam After Dark
EXTD=YEAR: 2006
EXTT0=
EXTT1=
EXTT2=
EXTT3=
EXTT4=
EXTT5=
EXTT6=
EXTT7=
PLAYORDER=
